PathFileType	4	(x/y/z)	S08_P20_T14
DataRate	CameraRate	NumFrames	NumMarkers	Units	OrigDataRate	OrigDataStartFrame	OrigNumFrames
240	240	4	51	mm	240	148	394
Frame#	Time	Sternum			R.Acromium			L.Acromium			Top.Head			R.ASIS			L.ASIS			R.PSIS			L.PSIS			R.Great.Tro			L.Great.Tro			R.Iliac.Crest			L.Iliac.Crest			V.Sacral			R.Thigh.Upper.Post			R.Thigh.Lower.Ant			R.Thigh.Lower.Post			R.Thigh.Upper.Ant			R.Knee.Lat			R.Knee.Med			R.Shank.Upper.Post			R.Shank.Lower.Ant			R.Shank.Lower.Post			R.Shank.Upper.Ant			R.Ankle.Lat			R.Ankle.Med			R.Heel.Upper			R.Heel.Med			R.Heel.Lat			R.Toe.Lat			R.Toe.Med			R.Toe.Tip			L.Thigh.Upper.Post			L.Thigh.Lower.Ant			L.Thigh.Lower.Post			L.Thigh.Upper.Ant			L.Knee.Lat			L.Knee.Med			L.Shank.Upper.Post			L.Shank.Lower.Ant			L.Shank.Lower.Post			L.Shank.Upper.Ant			L.Ankle.Lat			L.Ankle.Med			L.Heel.Upper			L.Heel.Med			L.Heel.Lat			L.Toe.Lat			L.Toe.Med			L.Toe.Tip			Cervical.Spine			Back			
		X1	Y1	Z1	X2	Y2	Z2	X3	Y3	Z3	X4	Y4	Z4	X5	Y5	Z5	X6	Y6	Z6	X7	Y7	Z7	X8	Y8	Z8	X9	Y9	Z9	X10	Y10	Z10	X11	Y11	Z11	X12	Y12	Z12	X13	Y13	Z13	X14	Y14	Z14	X15	Y15	Z15	X16	Y16	Z16	X17	Y17	Z17	X18	Y18	Z18	X19	Y19	Z19	X20	Y20	Z20	X21	Y21	Z21	X22	Y22	Z22	X23	Y23	Z23	X24	Y24	Z24	X25	Y25	Z25	X26	Y26	Z26	X27	Y27	Z27	X28	Y28	Z28	X29	Y29	Z29	X30	Y30	Z30	X31	Y31	Z31	X32	Y32	Z32	X33	Y33	Z33	X34	Y34	Z34	X35	Y35	Z35	X36	Y36	Z36	X37	Y37	Z37	X38	Y38	Z38	X39	Y39	Z39	X40	Y40	Z40	X41	Y41	Z41	X42	Y42	Z42	X43	Y43	Z43	X44	Y44	Z44	X45	Y45	Z45	X46	Y46	Z46	X47	Y47	Z47	X48	Y48	Z48	X49	Y49	Z49	X50	Y50	Z50	X51	Y51	Z51	

148	0.6125	-562.32	1212.1	304.33	-683.84	1446.5	481.64	-700	1475.4	146.65	-684.19	1767.5	331.48	-585.16	1004.6	413.36	-591.56	996.95	182.36	-790.61	1020.1	344.1	-787.07	1023.2	252.02	-634.78	896.36	487.27	-691.31	888.15	120.04	-680.88	1067.8	462.64	-686.5	1078.4	154.87	-805.27	980.91	298.29	-594.76	695.58	464.92	-493.43	626.93	421.74	-562.12	613.29	439.63	-520.2	715.34	446.58	-498.24	526.84	412.82	-540.93	522.72	293.18	-536.22	334.73	423.98	-472.16	280.19	392.15	-529.19	258.2	414.44	-478.69	357.49	403.81	-517.91	94.77	372.31	-493.83	113.34	293.25	-567.02	63.923	325.22	-553.51	37.302	297.23	-557.97	39.117	359.06	NaN	NaN	NaN	-369.05	51.916	277.97	-304.83	74.351	320.99	-730.87	681.82	143.37	-646.85	586.85	151.22	-716.85	592.16	156.08	-659.72	673.46	134.51	-719.64	495.65	167.87	-695.46	486.01	291.2	-872.29	393.89	173.71	-884.52	284.95	188.86	-922.3	341.28	191.18	-831.34	342.9	173.48	-1018	193.54	207.39	-990.28	187.12	289.96	-1070.9	214.37	256.12	-1083	187.31	291.9	-1087.6	186.67	227.75	-980.25	54.589	209.35	-954.35	63.886	322.17	-902.08	39.144	278.05	-758.9	1504.4	309.34	-799.13	1219.3	313.96
149	0.61667	-556.85	1212.5	304.5	-678.18	1446.9	481.82	-694.6	1475.7	146.89	-678.69	1767.8	331.76	-579.67	1005.1	413.75	-585.9	997.04	182.8	-785.07	1020.3	344.07	-781.47	1023.2	251.97	-629.14	897.04	487.68	-684.88	887.68	120.33	-675.53	1068.4	462.76	-680.78	1078.4	154.93	-799.65	981.01	298.35	-589.32	696.05	465.5	-488.31	627.22	421.85	-556.91	613.69	440.15	-514.83	715.71	446.7	-493.6	526.82	412.92	-536.4	522.98	293.35	-533.13	334.84	424.25	-469.64	279.76	392.03	-526.77	258.28	414.62	-475.48	357.14	403.84	-517.4	94.866	372.22	-493.3	113.21	293.19	-566.85	64.106	325.25	-553.47	37.441	297.25	-557.9	39.282	359.08	NaN	NaN	NaN	-368.81	51.126	277.91	-304.43	73.11	320.9	-721.95	680.5	142.98	-636.8	586.56	150.49	-706.72	590.99	155.26	-650.64	673.13	134.06	-708.15	494.8	166.58	-683.41	484.76	290.17	-861.43	395.44	172.43	-876.03	286.81	187.41	-912.28	343.59	189.89	-821.31	343.84	172.3	-1009.9	197.73	205.61	-982.63	190.83	288.47	-1061.9	220.85	254.08	-1075.2	194.52	290.03	-1079.6	193.66	225.84	-977.18	57.041	208.54	-951.37	66.17	321.36	-900.29	38.708	277.58	-753.44	1504.7	309.67	-793.6	1219.7	314.16
150	0.62083	-551.42	1212.9	304.65	-672.52	1447.3	481.99	-689.21	1476.1	147.11	-673.19	1768.1	332.04	-574.22	1005.7	414.13	-580.32	997.13	183.22	-779.58	1020.6	344.05	-775.94	1023.2	251.94	-623.54	897.72	488.09	-678.51	887.22	120.63	-670.22	1069.1	462.88	-675.13	1078.3	154.99	-794.09	981.12	298.43	-583.99	696.49	466.07	-483.32	627.48	421.96	-551.85	614.07	440.65	-509.56	716.04	446.84	-489.1	526.78	413.02	-531.98	523.23	293.48	-530.16	334.94	424.48	-467.24	279.33	391.89	-524.46	258.35	414.76	-472.4	356.8	403.86	-516.93	94.978	372.1	-492.85	113.1	293.11	-566.7	64.261	325.27	-553.42	37.56	297.26	-557.83	39.431	359.08	NaN	NaN	NaN	-368.59	50.439	277.84	-304.07	72.003	320.82	-713.01	679.23	142.57	-626.7	586.35	149.75	-696.55	589.89	154.42	-641.54	672.87	133.6	-696.56	494.05	165.3	-671.26	483.62	289.19	-850.39	397.02	171.18	-867.27	288.73	186	-902.04	345.92	188.62	-811.07	344.84	171.15	-1001.6	201.93	203.84	-974.69	194.56	286.99	-1052.5	227.26	252.04	-1066.9	201.67	288.14	-1071.2	200.62	223.91	-973.73	59.656	207.67	-948.02	68.568	320.48	-898.18	38.308	277.02	-747.99	1505	309.98	-788.1	1220	314.36
151	0.625	-546.02	1213.3	304.77	-666.87	1447.7	482.14	-683.84	1476.5	147.32	-667.69	1768.4	332.33	-568.8	1006.4	414.49	-574.79	997.23	183.62	-774.13	1020.9	344.06	-770.46	1023.2	251.93	-617.99	898.4	488.5	-672.2	886.78	120.93	-664.94	1069.8	462.99	-669.55	1078.2	155.04	-788.58	981.25	298.55	-578.81	696.92	466.61	-478.49	627.67	422.07	-546.95	614.42	441.12	-504.42	716.32	446.99	-484.78	526.71	413.1	-527.7	523.47	293.58	-527.34	335.05	424.67	-464.96	278.92	391.73	-522.28	258.43	414.86	-469.47	356.46	403.86	-516.5	95.1	371.97	-492.46	113	293.01	-566.57	64.392	325.27	-553.36	37.657	297.26	-557.77	39.565	359.08	NaN	NaN	NaN	-368.38	49.841	277.77	-303.74	71.013	320.75	-704.04	678.04	142.13	-616.58	586.25	149.03	-686.34	588.89	153.57	-632.41	672.69	133.12	-684.87	493.4	164.03	-659.06	482.61	288.25	-839.18	398.63	169.96	-858.24	290.7	184.63	-891.61	348.26	187.38	-800.64	345.9	170.04	-992.89	206.12	202.1	-966.44	198.3	285.56	-1042.8	233.57	250.02	-1058.3	208.69	286.24	-1062.4	207.5	221.98	-969.87	62.416	206.74	-944.27	71.06	319.53	-895.69	37.961	276.37	-742.55	1505.4	310.28	-782.64	1220.4	314.54
